# xmcd
#
# Track frame offsets: 
#        150
#        14045
#        31897
#        53530
#        78745
#        116675
#        143943
#        178156
#
# Disc length: 2981 seconds
#
# Revision: 1
# Processed by: cddbd v1.5.2PL0 Copyright (c) Steve Scherf et al.
# Submitted via: ExactAudioCopyFreeDBPlugin 1.0
#
DISCID=6b0ba308
DTITLE=Friedrich Gulda - Genie und Rebell - CD10
DYEAR=1956
DGENRE=Jazz
TTITLE0=Friedrich Gulda, Idrees Sulieman (Trompete), James Cleveland (
TTITLE0=Posaune), Phil Woods (Alt-Sax), Seldon Powell (Tenor-Sax), Aar
TTITLE0=on Bell (Kontrabass), Nick Stabulas (Schlagzeug) - 1956 Birdla
TTITLE0=nd - Friedrich Gulda at Birdland - Gulda - Quintet
TTITLE1=Friedrich Gulda, Idrees Sulieman (Trompete), James Cleveland (
TTITLE1=Posaune), Phil Woods (Alt-Sax), Seldon Powell (Tenor-Sax), Aar
TTITLE1=on Bell (Kontrabass), Nick Stabulas (Schlagzeug) - 1956 Birdla
TTITLE1=nd - Friedrich Gulda at Birdland - Gulda - Introvert
TTITLE2=Friedrich Gulda, Idrees Sulieman (Trompete), James Cleveland (
TTITLE2=Posaune), Phil Woods (Alt-Sax), Seldon Powell (Tenor-Sax), Aar
TTITLE2=on Bell (Kontrabass), Nick Stabulas (Schlagzeug) - 1956 Birdla
TTITLE2=nd - Friedrich Gulda at Birdland - Gulda - Teheran
TTITLE3=Friedrich Gulda, Idrees Sulieman (Trompete), James Cleveland (
TTITLE3=Posaune), Phil Woods (Alt-Sax), Seldon Powell (Tenor-Sax), Aar
TTITLE3=on Bell (Kontrabass), Nick Stabulas (Schlagzeug) - 1956 Birdla
TTITLE3=nd - Friedrich Gulda at Birdland - Gulda - Cool Hill
TTITLE4=Friedrich Gulda, Idrees Sulieman (Trompete), James Cleveland (
TTITLE4=Posaune), Phil Woods (Alt-Sax), Seldon Powell (Tenor-Sax), Aar
TTITLE4=on Bell (Kontrabass), Nick Stabulas (Schlagzeug) - 1956 Birdla
TTITLE4=nd - Friedrich Gulda at Birdland - Heyman and Greene - Out Of No
TTITLE4=where
TTITLE5=Friedrich Gulda, Idrees Sulieman (Trompete), James Cleveland (
TTITLE5=Posaune), Phil Woods (Alt-Sax), Seldon Powell (Tenor-Sax), Aar
TTITLE5=on Bell (Kontrabass), Nick Stabulas (Schlagzeug) - 1956 Birdla
TTITLE5=nd - Friedrich Gulda at Birdland - Shearing - Lullaby of Birdl
TTITLE5=and
TTITLE6=Friedrich Gulda, Idrees Sulieman (Trompete), James Cleveland (
TTITLE6=Posaune), Phil Woods (Alt-Sax), Seldon Powell (Tenor-Sax), Aar
TTITLE6=on Bell (Kontrabass), Nick Stabulas (Schlagzeug) - 1956 Birdla
TTITLE6=nd - Friedrich Gulda at Birdland - Kern - All The Things You A
TTITLE6=re
TTITLE7=Friedrich Gulda, Idrees Sulieman (Trompete), James Cleveland (
TTITLE7=Posaune), Phil Woods (Alt-Sax), Seldon Powell (Tenor-Sax), Aar
TTITLE7=on Bell (Kontrabass), Nick Stabulas (Schlagzeug) - 1956 Birdla
TTITLE7=nd - Friedrich Gulda at Birdland - Miller, Stoller, Leibner - 
TTITLE7=Bernie's Tune
EXTD=YEAR: 1956
EXTT0=
EXTT1=
EXTT2=
EXTT3=
EXTT4=
EXTT5=
EXTT6=
EXTT7=
PLAYORDER=
